<svg width="160" height="160" viewBox="0 0 160 160" fill="none" xmlns="http://www.w3.org/2000/svg">
<circle cx="80" cy="80" r="79.5" fill="white" stroke="#2E3E75"/>
<circle cx="80" cy="80" r="75" fill="#2E3E75"/>
<path d="M91.0004 59C96.8001 59 101.501 54.2996 101.501 48.5C101.501 42.7004 96.8001 38 91.0004 38C85.2008 38 80.5003 42.7004 80.5003 48.5C80.5003 54.2996 85.2008 59 91.0004 59ZM85.9752 86.8496C88.2819 89.5927 92.3737 89.9816 95.1578 87.706L109.595 75.8902C112.399 73.5966 112.809 69.4606 110.518 66.6568C108.226 63.8497 104.088 63.4428 101.279 65.7348L91.8552 73.4457L85.4715 65.848C82.9383 62.8309 79.0369 61.2673 74.9714 61.6923C71.0027 62.0991 67.5475 64.3616 65.7231 67.7495L57.6232 82.8481C53.7841 90.0078 56.1975 98.6588 63.2326 103.151L70.5843 108.875H55.5626C51.9384 108.875 49 111.813 49 115.438C49 119.062 51.9384 122 55.5626 122H89.6879C95.2792 122 98.5097 114.98 94.3277 110.798L76.3036 92.7739L82.013 82.1312L85.9752 86.8496Z" fill="white"/>
</svg>
