<svg width="160" height="160" viewBox="0 0 160 160" fill="none" xmlns="http://www.w3.org/2000/svg">
<circle cx="80" cy="80" r="79.5" fill="white" stroke="#2E3E75"/>
<circle cx="80" cy="80" r="75" fill="#2E3E75"/>
<path d="M38 115.584V90.7528C38 89.8814 38.2417 89.091 38.7251 88.3814C39.2084 87.6719 39.8568 87.1347 40.6703 86.7696L55.6842 80.0573V68.1783C55.6842 67.3275 55.9023 66.5605 56.3385 65.8775C56.7747 65.1945 57.3554 64.6499 58.0804 64.2436L77.7895 54.3562V44.2436H71.1579C70.5301 44.2436 70.0055 44.0316 69.584 43.6077C69.1625 43.1837 68.9503 42.6597 68.9474 42.0356C68.9444 41.4114 69.1566 40.8874 69.584 40.4635C70.0114 40.0395 70.536 39.829 71.1579 39.832H77.7895V33.208C77.7895 32.5839 78.0017 32.0598 78.4261 31.6359C78.8505 31.212 79.3766 31 80.0044 31C80.6322 31 81.1568 31.212 81.5783 31.6359C81.9998 32.0598 82.2105 32.5839 82.2105 33.208V39.832H88.8421C89.4699 39.832 89.9945 40.044 90.416 40.4679C90.8404 40.8918 91.0526 41.4173 91.0526 42.0444C91.0526 42.6715 90.8404 43.1955 90.416 43.6165C89.9916 44.0375 89.4669 44.248 88.8421 44.248H82.2105V54.3518L101.92 64.2392C102.645 64.6455 103.225 65.1901 103.661 65.8731C104.098 66.5561 104.316 67.3216 104.316 68.1694V80.0617L119.33 86.7696C120.146 87.1347 120.795 87.6719 121.275 88.3814C121.755 89.091 121.997 89.8814 122 90.7528V115.584C122 116.767 121.559 117.799 120.678 118.68C119.797 119.56 118.764 120 117.579 120H91.2206C90.2097 120 89.3623 119.658 88.6785 118.975C87.9947 118.292 87.6528 117.445 87.6528 116.432V105.224C87.6528 103.122 86.9042 101.322 85.4069 99.8233C83.9097 98.3248 82.1118 97.577 80.0133 97.58C77.9147 97.5829 76.1124 98.3322 74.6063 99.8277C73.1002 101.323 72.3486 103.122 72.3516 105.224V116.432C72.3516 117.442 72.0082 118.29 71.3215 118.975C70.6347 119.661 69.7859 120.003 68.7749 120H42.4211C41.2362 120 40.2032 119.56 39.3219 118.68C38.4406 117.799 38 116.767 38 115.584ZM80.0221 82.9763C81.3956 82.9763 82.5568 82.4949 83.5059 81.5322C84.4579 80.5695 84.9339 79.4023 84.9339 78.0304C84.9339 76.6555 84.452 75.4926 83.4882 74.5417C82.5244 73.5967 81.3558 73.1242 79.9823 73.1242C78.6059 73.1242 77.4417 73.6041 76.4897 74.5638C75.5436 75.5265 75.0705 76.6938 75.0705 78.0657C75.0705 79.4405 75.5509 80.6034 76.5118 81.5543C77.4756 82.5023 78.6442 82.9763 80.0177 82.9763" fill="white"/>
</svg>
