<svg width="160" height="160" viewBox="0 0 160 160" fill="none" xmlns="http://www.w3.org/2000/svg">
<circle cx="80" cy="80" r="79.5" fill="white" stroke="#2E3E75"/>
<circle cx="80" cy="80" r="75" fill="#2E3E75"/>
<path d="M72.375 39L71.8997 39.0283C70.9115 39.1444 70.0004 39.618 69.3392 40.3593C68.6779 41.1006 68.3126 42.058 68.3125 43.05V59.25H52.0625C50.9851 59.25 49.9517 59.6767 49.1899 60.4362C48.428 61.1957 48 62.2259 48 63.3V79.5L48.0284 79.9739C48.1449 80.959 48.6199 81.8673 49.3635 82.5265C50.1071 83.1857 51.0675 83.5499 52.0625 83.55H68.3125V115.95C68.3125 117.024 68.7405 118.054 69.5024 118.814C70.2642 119.573 71.2976 120 72.375 120H88.625L89.1003 119.972C90.0885 119.856 90.9996 119.382 91.6608 118.641C92.3221 117.899 92.6874 116.942 92.6875 115.95V83.55H108.938C110.015 83.55 111.048 83.1233 111.81 82.3638C112.572 81.6043 113 80.5741 113 79.5V63.3L112.972 62.8262C112.855 61.841 112.38 60.9327 111.637 60.2735C110.893 59.6143 109.933 59.2501 108.938 59.25H92.6875V43.05C92.6875 41.9759 92.2595 40.9457 91.4976 40.1862C90.7358 39.4267 89.7024 39 88.625 39H72.375Z" fill="white"/>
</svg>
