<svg width="160" height="160" viewBox="0 0 160 160" fill="none" xmlns="http://www.w3.org/2000/svg">
<circle cx="80" cy="80" r="79.5" fill="white" stroke="#2E3E75"/>
<circle cx="80" cy="80" r="75" fill="#2E3E75"/>
<path d="M101.354 50.625H93.3334C92.908 50.625 92.4999 50.794 92.1991 51.0948C91.8983 51.3957 91.7292 51.8037 91.7292 52.2292V52.4185L102.958 61.4018V52.2292C102.958 51.8037 102.789 51.3957 102.489 51.0948C102.188 50.794 101.78 50.625 101.354 50.625Z" fill="white"/>
<path d="M76.4895 71.4792C76.4895 70.4155 76.912 69.3955 77.6641 68.6434C78.4162 67.8913 79.4363 67.4688 80.4999 67.4688C81.5635 67.4688 82.5836 67.8913 83.3357 68.6434C84.0878 69.3955 84.5103 70.4155 84.5103 71.4792C84.5103 72.5428 84.0878 73.5629 83.3357 74.315C82.5836 75.0671 81.5635 75.4896 80.4999 75.4896C79.4363 75.4896 78.4162 75.0671 77.6641 74.315C76.912 73.5629 76.4895 72.5428 76.4895 71.4792" fill="white"/>
<path fill-rule="evenodd" clip-rule="evenodd" d="M108.573 76.1633L111.082 78.1717C111.581 78.5609 112.214 78.7376 112.843 78.6634C113.472 78.5892 114.046 78.2701 114.441 77.7753C114.836 77.2805 115.021 76.6499 114.954 76.0202C114.887 75.3906 114.575 74.8125 114.085 74.4115L88.0172 53.5574C85.8837 51.8501 83.2326 50.9199 80.5001 50.9199C77.7676 50.9199 75.1165 51.8501 72.983 53.5574L46.9152 74.4115C46.4166 74.8102 46.0968 75.3906 46.0261 76.025C45.9554 76.6595 46.1396 77.2961 46.5383 77.7947C46.9369 78.2933 47.5173 78.6132 48.1518 78.6839C48.7863 78.7546 49.4228 78.5703 49.9215 78.1717L52.4272 76.1633V109.177H48.4167C47.7786 109.177 47.1665 109.431 46.7153 109.882C46.264 110.333 46.0105 110.945 46.0105 111.583C46.0105 112.221 46.264 112.833 46.7153 113.285C47.1665 113.736 47.7786 113.99 48.4167 113.99H112.583C113.222 113.99 113.834 113.736 114.285 113.285C114.736 112.833 114.99 112.221 114.99 111.583C114.99 110.945 114.736 110.333 114.285 109.882C113.834 109.431 113.222 109.177 112.583 109.177H108.573V76.1633ZM71.6772 71.4791C71.6772 69.1391 72.6067 66.895 74.2613 65.2404C75.916 63.5857 78.1601 62.6562 80.5001 62.6562C82.8401 62.6562 85.0842 63.5857 86.7388 65.2404C88.3934 66.895 89.323 69.1391 89.323 71.4791C89.323 73.8191 88.3934 76.0632 86.7388 77.7178C85.0842 79.3725 82.8401 80.302 80.5001 80.302C78.1601 80.302 75.916 79.3725 74.2613 77.7178C72.6067 76.0632 71.6772 73.8191 71.6772 71.4791ZM80.6605 83.5104C82.7908 83.5104 84.6292 83.5104 86.1018 83.7093C87.6803 83.921 89.1915 84.3991 90.417 85.6246C91.6426 86.8502 92.1207 88.3614 92.3324 89.9399C92.5185 91.3194 92.5313 93.0199 92.5313 94.9866V109.177H87.7188V95.5416C87.7188 93.2059 87.7124 91.6916 87.5648 90.5815C87.4237 89.5388 87.1991 89.2116 87.013 89.0287C86.8301 88.8458 86.5029 88.618 85.4602 88.4769C84.3469 88.3293 82.8357 88.3229 80.5001 88.3229C78.1644 88.3229 76.6501 88.3293 75.54 88.4769C74.4973 88.618 74.17 88.8458 73.9872 89.0287C73.8043 89.2116 73.5765 89.5388 73.4353 90.5815C73.2877 91.6948 73.2813 93.2059 73.2813 95.5416V109.177H68.4688V95.3812C68.4688 93.2509 68.4688 91.4125 68.6677 89.9399C68.8795 88.3614 69.3575 86.8502 70.5831 85.6246C71.8087 84.3991 73.323 83.921 74.8983 83.7093C76.371 83.5104 78.2093 83.5104 80.3429 83.5104H80.6605Z" fill="white"/>
<path d="M76.4895 71.4792C76.4895 70.4155 76.912 69.3955 77.6641 68.6434C78.4162 67.8913 79.4363 67.4688 80.4999 67.4688C81.5635 67.4688 82.5836 67.8913 83.3357 68.6434C84.0878 69.3955 84.5103 70.4155 84.5103 71.4792C84.5103 72.5428 84.0878 73.5629 83.3357 74.315C82.5836 75.0671 81.5635 75.4896 80.4999 75.4896C79.4363 75.4896 78.4162 75.0671 77.6641 74.315C76.912 73.5629 76.4895 72.5428 76.4895 71.4792" fill="white"/>
</svg>
