<svg width="160" height="160" viewBox="0 0 160 160" fill="none" xmlns="http://www.w3.org/2000/svg">
<circle cx="80" cy="80" r="79.5" fill="white" stroke="#2E3E75"/>
<circle cx="80" cy="80" r="75" fill="#2E3E75"/>
<path d="M97.375 69.375H104.125V62.625H97.375V69.375ZM97.375 82.875H104.125V76.125H97.375V82.875ZM97.375 96.375H104.125V89.625H97.375V96.375ZM97.375 109.875V103.125H110.875V55.875H80.5V60.6L73.75 55.7062V49.125H117.625V109.875H97.375ZM43.375 109.875V76.125L67 59.25L90.625 76.125V109.875H70.375V93H63.625V109.875H43.375ZM50.125 103.125H56.875V86.25H77.125V103.125H83.875V79.5L67 67.5187L50.125 79.5V103.125Z" fill="white"/>
</svg>
