<svg width="85" height="73" viewBox="0 0 85 73" fill="none" xmlns="http://www.w3.org/2000/svg">
<path d="M77.551 32.9717C76.9388 33.0122 76.3673 33.215 75.9592 33.6611L71.8776 37.7167L80.2449 45.8278L84.3265 41.7722C85.2245 40.9206 85.2245 39.5011 84.3265 38.6494L79.2653 33.6611C78.8574 33.2408 78.3015 32.9937 77.7143 32.9717M69.551 40.0689L44.898 64.6456V73H53.3061L78.0408 48.3828M73.4694 0H8.16327C5.99823 0 3.92187 0.854561 2.39096 2.37569C0.860055 3.89682 0 5.95991 0 8.11111V56.7778C0 58.929 0.860055 60.9921 2.39096 62.5132C3.92187 64.0343 5.99823 64.8889 8.16327 64.8889H36.7347V61.2794L70.3673 27.9428C72.2857 25.9556 74.9388 24.8606 77.7143 24.8606C79.102 24.8606 80.4898 25.1039 81.7959 25.6311V8.11111C81.7959 3.56889 78.0408 0 73.4694 0ZM73.4694 16.2222L40.8163 36.5L8.16327 16.2222V8.11111L40.8163 28.3889L73.4694 8.11111" fill="black"/>
</svg>
