<svg width="78" height="78" viewBox="0 0 78 78" fill="none" xmlns="http://www.w3.org/2000/svg">
<path d="M62.5001 77.9993C59.1009 77.9993 54.3259 76.7701 47.1756 72.776C38.4806 67.901 31.7552 63.4003 23.1073 54.7766C14.7694 46.4455 10.7118 41.0516 5.03304 30.72C-1.38238 19.0546 -0.288764 12.9399 0.933718 10.3265C2.38955 7.20302 4.53847 5.33483 7.31605 3.48057C8.8937 2.44712 10.5632 1.56122 12.3035 0.834109C12.4776 0.759242 12.6396 0.687857 12.7841 0.623437C13.6461 0.235173 14.9522 -0.351575 16.6066 0.275218C17.7106 0.689598 18.6963 1.53751 20.2392 3.06097C23.4034 6.181 27.7273 13.1297 29.3225 16.5422C30.3934 18.8422 31.1022 20.3605 31.1039 22.0632C31.1039 24.0568 30.1009 25.5942 28.8836 27.2534C28.6555 27.5651 28.4291 27.8628 28.2097 28.1518C26.8845 29.8929 26.5937 30.3961 26.7852 31.2945C27.1735 33.1 30.0695 38.4748 34.8289 43.2227C39.5882 47.9707 44.809 50.6833 46.6218 51.0698C47.5587 51.2701 48.0724 50.9671 49.8696 49.5951C50.1273 49.3984 50.392 49.1947 50.6689 48.991C52.5252 47.6103 53.9915 46.6335 55.9384 46.6335H55.9489C57.6433 46.6335 59.0939 47.3683 61.4971 48.5801C64.6317 50.161 71.7907 54.4284 74.9305 57.5955C76.4577 59.1346 77.3092 60.1166 77.7254 61.2187C78.3524 62.8779 77.762 64.1785 77.3772 65.0491C77.3127 65.1936 77.2413 65.352 77.1664 65.5279C76.4334 67.2647 75.5421 68.9304 74.5038 70.5039C72.6527 73.2723 70.7771 75.4155 67.6461 76.8728C66.0382 77.6332 64.2787 78.0184 62.5001 77.9993Z" fill="black"/>
</svg>
