<svg width="28" height="33" viewBox="0 0 28 33" fill="none" xmlns="http://www.w3.org/2000/svg">
<path d="M24.708 9.21651L18.7166 3.21896C17.6985 2.19842 16.4898 1.38889 15.1596 0.83658C13.8294 0.28427 12.4037 1.86249e-08 10.9639 0C9.52411 -1.86249e-08 8.09841 0.28427 6.7682 0.836579C5.438 1.38889 4.22935 2.19842 3.21126 3.21896C2.19316 4.23949 1.38557 5.45104 0.834578 6.78444C0.28359 8.11783 -1.85803e-08 9.54695 0 10.9902C1.85803e-08 12.4335 0.28359 13.8626 0.834578 15.196C1.38557 16.5294 2.19316 17.7409 3.21126 18.7615L16.9372 32.5171C17.2461 32.8264 17.6649 33.0002 18.1015 33C18.5382 32.9998 18.9569 32.8258 19.2655 32.5162C19.5741 32.2066 19.7474 31.7868 19.7473 31.3491C19.7471 30.9115 19.5735 30.4918 19.2647 30.1824L5.5387 16.4284C4.10557 15.0147 3.28352 13.0935 3.24952 11.0783C3.21552 9.06303 3.97228 7.11501 5.35689 5.65354C6.74151 4.19206 8.64325 3.33401 10.6527 3.2641C12.6622 3.19419 14.6187 3.91801 16.1011 5.27974L16.3875 5.55363L22.3789 11.5479H14.832C14.4286 11.548 14.0393 11.6966 13.738 11.9655C13.4366 12.2344 13.2443 12.6048 13.1975 13.0064L13.186 13.1995C13.1861 13.6036 13.3341 13.9937 13.602 14.2957C13.8699 14.5977 14.239 14.7906 14.6394 14.8379L14.832 14.8478H26.354C26.7572 14.8477 27.1463 14.6994 27.4476 14.4308C27.7488 14.1623 27.9413 13.7922 27.9885 13.3909L28 13.1995V1.65316C27.9991 1.23276 27.8382 0.828552 27.5501 0.523073C27.2619 0.217594 26.8683 0.0338843 26.4496 0.0094568C26.031 -0.0149707 25.6188 0.121726 25.2972 0.391635C24.9757 0.661544 24.7691 1.04431 24.7195 1.46176L24.708 1.65316V9.21651Z" fill="white"/>
</svg>
