<svg width="160" height="160" viewBox="0 0 160 160" fill="none" xmlns="http://www.w3.org/2000/svg">
<circle cx="80" cy="80" r="79.5" fill="white" stroke="#2E3E75"/>
<circle cx="80" cy="80" r="75" fill="#2E3E75"/>
<path d="M122 56.5625V108.437H39V56.5625H64.9375V51.375C64.9375 50.6455 65.0726 49.97 65.3428 49.3486C65.613 48.7272 65.9777 48.1868 66.437 47.7275C66.8963 47.2682 67.4502 46.8899 68.0986 46.5927C68.7471 46.2955 69.4225 46.1604 70.125 46.1875H90.875C91.6045 46.1875 92.2799 46.3226 92.9014 46.5927C93.5228 46.8629 94.0632 47.2277 94.5225 47.687C94.9818 48.1463 95.36 48.7002 95.6572 49.3486C95.9544 49.997 96.0895 50.6725 96.0625 51.375V56.5625H122ZM70.125 56.5625H90.875V51.375H70.125V56.5625ZM44.1875 61.75V69.2475L70.125 82.1757V77.3125H90.875V82.1757L116.812 69.2475V61.75H44.1875ZM75.3125 82.5V87.6875H85.6875V82.5H75.3125ZM116.812 103.25V75.0024L90.875 88.0117V92.875H70.125V88.0117L44.1875 75.0024V103.25H116.812Z" fill="white"/>
</svg>
