<svg width="160" height="160" viewBox="0 0 160 160" fill="none" xmlns="http://www.w3.org/2000/svg">
<circle cx="80" cy="80" r="79.5" fill="white" stroke="#2E3E75"/>
<circle cx="80" cy="80" r="75" fill="#2E3E75"/>
<path d="M101.354 50.625H93.3333C92.9078 50.625 92.4998 50.794 92.199 51.0948C91.8981 51.3957 91.7291 51.8037 91.7291 52.2292V52.4185L102.958 61.4018V52.2292C102.958 51.8037 102.789 51.3957 102.488 51.0948C102.188 50.794 101.78 50.625 101.354 50.625Z" fill="white"/>
<path d="M76.4896 71.4792C76.4896 70.4155 76.9121 69.3955 77.6642 68.6434C78.4163 67.8913 79.4364 67.4688 80.5 67.4688C81.5637 67.4688 82.5837 67.8913 83.3358 68.6434C84.0879 69.3955 84.5105 70.4155 84.5105 71.4792C84.5105 72.5428 84.0879 73.5629 83.3358 74.315C82.5837 75.0671 81.5637 75.4896 80.5 75.4896C79.4364 75.4896 78.4163 75.0671 77.6642 74.315C76.9121 73.5629 76.4896 72.5428 76.4896 71.4792Z" fill="white"/>
<path fill-rule="evenodd" clip-rule="evenodd" d="M108.573 76.1633L111.082 78.1717C111.581 78.5609 112.214 78.7376 112.843 78.6634C113.472 78.5892 114.046 78.2701 114.441 77.7753C114.836 77.2805 115.02 76.6499 114.954 76.0202C114.887 75.3906 114.575 74.8125 114.085 74.4115L88.0171 53.5574C85.8836 51.8501 83.2325 50.9199 80.5 50.9199C77.7675 50.9199 75.1163 51.8501 72.9828 53.5574L46.9151 74.4115C46.4165 74.8102 46.0967 75.3906 46.026 76.025C45.9553 76.6595 46.1395 77.2961 46.5381 77.7947C46.9368 78.2933 47.5172 78.6132 48.1517 78.6839C48.7861 78.7546 49.4227 78.5703 49.9213 78.1717L52.427 76.1633V109.177H48.4166C47.7784 109.177 47.1664 109.431 46.7152 109.882C46.2639 110.333 46.0104 110.945 46.0104 111.583C46.0104 112.221 46.2639 112.833 46.7152 113.285C47.1664 113.736 47.7784 113.99 48.4166 113.99H112.583C113.221 113.99 113.834 113.736 114.285 113.285C114.736 112.833 114.99 112.221 114.99 111.583C114.99 110.945 114.736 110.333 114.285 109.882C113.834 109.431 113.221 109.177 112.583 109.177H108.573V76.1633ZM71.677 71.4791C71.677 69.1391 72.6066 66.895 74.2612 65.2404C75.9158 63.5857 78.16 62.6562 80.5 62.6562C82.8399 62.6562 85.0841 63.5857 86.7387 65.2404C88.3933 66.895 89.3229 69.1391 89.3229 71.4791C89.3229 73.8191 88.3933 76.0632 86.7387 77.7178C85.0841 79.3725 82.8399 80.302 80.5 80.302C78.16 80.302 75.9158 79.3725 74.2612 77.7178C72.6066 76.0632 71.677 73.8191 71.677 71.4791ZM80.6604 83.5104C82.7907 83.5104 84.6291 83.5104 86.1017 83.7093C87.6802 83.921 89.1913 84.3991 90.4169 85.6246C91.6425 86.8502 92.1205 88.3614 92.3323 89.9399C92.5184 91.3194 92.5312 93.0199 92.5312 94.9866V109.177H87.7187V95.5416C87.7187 93.2059 87.7123 91.6916 87.5647 90.5815C87.4235 89.5388 87.199 89.2116 87.0129 89.0287C86.83 88.8458 86.5027 88.618 85.46 88.4769C84.3467 88.3293 82.8356 88.3229 80.5 88.3229C78.1643 88.3229 76.65 88.3293 75.5399 88.4769C74.4972 88.618 74.1699 88.8458 73.987 89.0287C73.8042 89.2116 73.5764 89.5388 73.4352 90.5815C73.2876 91.6948 73.2812 93.2059 73.2812 95.5416V109.177H68.4687V95.3812C68.4687 93.2509 68.4687 91.4125 68.6676 89.9399C68.8794 88.3614 69.3574 86.8502 70.583 85.6246C71.8086 84.3991 73.3229 83.921 74.8982 83.7093C76.3708 83.5104 78.2092 83.5104 80.3428 83.5104H80.6604Z" fill="white"/>
<path d="M76.4896 71.4792C76.4896 70.4155 76.9121 69.3955 77.6642 68.6434C78.4163 67.8913 79.4364 67.4688 80.5 67.4688C81.5637 67.4688 82.5837 67.8913 83.3358 68.6434C84.0879 69.3955 84.5105 70.4155 84.5105 71.4792C84.5105 72.5428 84.0879 73.5629 83.3358 74.315C82.5837 75.0671 81.5637 75.4896 80.5 75.4896C79.4364 75.4896 78.4163 75.0671 77.6642 74.315C76.9121 73.5629 76.4896 72.5428 76.4896 71.4792Z" fill="white"/>
</svg>
