<svg width="160" height="160" viewBox="0 0 160 160" fill="none" xmlns="http://www.w3.org/2000/svg">
<circle cx="80" cy="80" r="79.5" fill="white" stroke="#2E3E75"/>
<circle cx="80" cy="80" r="75" fill="#2E3E75"/>
<path d="M90.1875 81.7863L93.675 96.8212L80.5 88.8775L67.325 96.8212L70.8125 81.825L59.1875 71.7887L74.5325 70.4712L80.5 56.3275L86.4675 70.4325L101.812 71.75L90.1875 81.7863ZM80.5 45.3612L107.625 57.4125V75.625C107.625 93.14 96.0775 109.299 80.5 114.104C64.9225 109.299 53.375 93.14 53.375 75.625V57.4125L80.5 45.3612ZM80.5 36.875L45.625 52.375V75.625C45.625 97.1313 60.505 117.243 80.5 122.125C100.495 117.243 115.375 97.1313 115.375 75.625V52.375L80.5 36.875Z" fill="white"/>
</svg>
