<svg width="160" height="160" viewBox="0 0 160 160" fill="none" xmlns="http://www.w3.org/2000/svg">
<circle cx="80" cy="80" r="79.5" fill="white" stroke="#2E3E75"/>
<circle cx="80" cy="80" r="75" fill="#2E3E75"/>
<path d="M84.4839 40.9844V47.625H89.7167C91.3317 47.625 92.9201 48.05 94.3226 48.8522L101.176 52.7622C101.378 52.8791 101.601 52.9375 101.835 52.9375H113.703C114.759 52.9375 115.773 53.3573 116.52 54.1045C117.267 54.8517 117.687 55.8652 117.687 56.9219C117.687 57.9786 117.267 58.992 116.52 59.7393C115.773 60.4865 114.759 60.9062 113.703 60.9062H111.434L122.649 85.8325C122.98 86.5699 123.08 87.3907 122.933 88.1859C122.787 88.9811 122.403 89.7129 121.831 90.2844L119.015 87.4688L121.825 90.2897L121.82 90.3003L121.81 90.3109L121.778 90.3428L121.746 90.3694L121.693 90.4225L121.454 90.635C120.338 91.57 119.111 92.3722 117.809 93.0256C115.328 94.2687 111.737 95.4375 107.062 95.4375C103.341 95.4814 99.6605 94.6555 96.3148 93.0256C95.0116 92.3725 93.7886 91.5703 92.6704 90.635L92.4314 90.4225L92.3464 90.3428L92.3145 90.3109L92.2933 90.2897V90.2844C91.7213 89.7129 91.3368 88.9811 91.1906 88.1859C91.0445 87.3907 91.1437 86.5699 91.4751 85.8325L102.695 60.9062H101.835C100.214 60.9062 98.6258 60.4866 97.2233 59.6791L90.3701 55.7691C90.17 55.6531 89.9426 55.5926 89.7114 55.5938H84.4839V106.062H97.7651C98.8218 106.062 99.8353 106.482 100.583 107.229C101.33 107.977 101.75 108.99 101.75 110.047C101.75 111.104 101.33 112.117 100.583 112.864C99.8353 113.611 98.8218 114.031 97.7651 114.031H63.2339C62.1772 114.031 61.1637 113.611 60.4165 112.864C59.6693 112.117 59.2495 111.104 59.2495 110.047C59.2495 108.99 59.6693 107.977 60.4165 107.229C61.1637 106.482 62.1772 106.062 63.2339 106.062H76.5151V55.5938H71.2876C71.0564 55.5926 70.829 55.6531 70.6289 55.7691L63.7811 59.6844C62.3733 60.4813 60.7848 60.9062 59.1645 60.9062H58.3039L69.5239 85.8325C69.8553 86.5699 69.9545 87.3907 69.8084 88.1859C69.6623 88.9811 69.2777 89.7129 68.7058 90.2844L65.8901 87.4688L68.7004 90.2897L68.6951 90.3003L68.6845 90.3109L68.6526 90.3428L68.5676 90.4225L68.3286 90.635C67.2129 91.57 65.9858 92.3722 64.6842 93.0256C62.2033 94.2687 58.612 95.4375 53.937 95.4375C50.2157 95.4814 46.5355 94.6555 43.1898 93.0256C41.8866 92.3725 40.6636 91.5703 39.5454 90.635L39.3064 90.4225L39.2214 90.3428L39.1895 90.3109L39.1683 90.2897V90.2844C38.5963 89.7129 38.2118 88.9811 38.0656 88.1859C37.9195 87.3907 38.0187 86.5699 38.3501 85.8325L49.5701 60.9062H47.2964C46.2397 60.9062 45.2262 60.4865 44.479 59.7393C43.7318 58.992 43.312 57.9786 43.312 56.9219C43.312 55.8652 43.7318 54.8517 44.479 54.1045C45.2262 53.3573 46.2397 52.9375 47.2964 52.9375H59.1645C59.3974 52.9385 59.6265 52.8781 59.8286 52.7622L66.6711 48.8469C68.0789 48.05 69.6673 47.625 71.2876 47.625H76.5151V40.9844C76.5151 39.9277 76.9349 38.9142 77.6821 38.167C78.4293 37.4198 79.4428 37 80.4995 37C81.5562 37 82.5697 37.4198 83.3169 38.167C84.0641 38.9142 84.4839 39.9277 84.4839 40.9844ZM100.129 86.0184C101.643 86.7356 103.944 87.4688 107.062 87.4688C110.18 87.4688 112.481 86.7356 113.995 86.0184L107.062 70.6122L100.129 86.0184ZM47.0042 86.0184C48.5183 86.7356 50.8186 87.4688 53.937 87.4688C57.0554 87.4688 59.3558 86.7356 60.8698 86.0184L53.937 70.6122L47.0042 86.0184Z" fill="white"/>
</svg>
