<svg width="160" height="160" viewBox="0 0 160 160" fill="none" xmlns="http://www.w3.org/2000/svg">
<circle cx="80" cy="80" r="79.5" fill="white" stroke="#2E3E75"/>
<circle cx="80" cy="80" r="75" fill="#2E3E75"/>
<path d="M66 75.5C69.8456 75.5 73.5338 73.9723 76.2531 71.253C78.9723 68.5338 80.5 64.8456 80.5 61C80.5 57.1544 78.9723 53.4662 76.2531 50.747C73.5338 48.0277 69.8456 46.5 66 46.5C62.1544 46.5 58.4662 48.0277 55.747 50.747C53.0277 53.4662 51.5 57.1544 51.5 61C51.5 64.8456 53.0277 68.5338 55.747 71.253C58.4662 73.9723 62.1544 75.5 66 75.5ZM98.625 75.5C101.509 75.5 104.275 74.3542 106.315 72.3148C108.354 70.2753 109.5 67.5092 109.5 64.625C109.5 61.7408 108.354 58.9747 106.315 56.9352C104.275 54.8958 101.509 53.75 98.625 53.75C95.7408 53.75 92.9747 54.8958 90.9352 56.9352C88.8958 58.9747 87.75 61.7408 87.75 64.625C87.75 67.5092 88.8958 70.2753 90.9352 72.3148C92.9747 74.3542 95.7408 75.5 98.625 75.5ZM49.2344 80.9375C47.4317 80.9375 45.7029 81.6536 44.4283 82.9283C43.1536 84.2029 42.4375 85.9317 42.4375 87.7344V90C42.4375 90 42.4375 106.312 66 106.312C89.5625 106.312 89.5625 90 89.5625 90V87.7344C89.5625 85.9317 88.8464 84.2029 87.5717 82.9283C86.2971 81.6536 84.5683 80.9375 82.7656 80.9375H49.2344ZM88.9716 101.036C91.4656 102.048 94.6248 102.688 98.6232 102.688C117.654 102.688 117.654 88.1875 117.654 88.1875V87.7344C117.654 85.932 116.939 84.2035 115.664 82.9289C114.39 81.6543 112.662 80.938 110.859 80.9375H90.6627C92.2925 82.8266 93.1875 85.2394 93.1839 87.7344V90.0816L93.1821 90.1849C93.1714 90.5367 93.1472 90.888 93.1096 91.2379C93.0197 92.047 92.8738 92.8489 92.6728 93.6377C91.9864 96.3417 90.7239 98.8655 88.9716 101.036Z" fill="white"/>
</svg>
