<svg width="63" height="91" viewBox="0 0 63 91" fill="none" xmlns="http://www.w3.org/2000/svg">
<path d="M60.0695 18.1963C64.6696 28.0849 63.6259 39.7253 58.5324 49.1855C54.3536 56.9471 48.1177 63.3664 42.9787 70.4719C40.6293 73.7252 38.2571 77.1073 36.6441 80.8118C36.1089 82.0441 35.6459 83.3067 35.1904 84.5731C34.7312 85.8358 34.3402 87.1249 33.9 88.3951C33.4863 89.5857 33.0042 90.9886 31.5202 91H31.4937C29.725 90.9962 29.2961 88.9904 28.8558 87.6368C27.7779 84.3229 26.6507 81.1417 24.9883 78.0628C23.0526 74.4835 20.6425 71.1734 18.1944 67.9353L60.0695 18.1963ZM18.388 29.2148L3.36183 47.0622C6.10973 52.9014 10.2733 57.9177 14.2585 62.9114C15.196 64.0868 16.1335 65.2698 17.0558 66.4604L35.9723 43.9947L35.8622 44.0327C29.2543 46.3114 21.8532 42.9293 19.1926 36.4986C18.8287 35.6257 18.5626 34.7152 18.3994 33.7838C18.1603 32.1268 18.1071 30.8983 18.3842 29.2414L18.388 29.2148ZM6.8005 11.94L6.78911 11.9552C-0.600611 21.3054 -1.86829 34.2502 2.54961 45.2081L20.7108 23.6373L20.4907 23.4477L6.8005 11.94ZM41.6009 1.65323L27.034 18.9546C27.0675 18.9403 27.1017 18.9276 27.1365 18.9167C33.2092 16.8275 40.0524 19.4854 43.1532 25.0819C43.8212 26.2915 44.3792 27.6716 44.5841 29.0442C44.8422 30.7353 44.9067 31.9752 44.6297 33.67L44.6183 33.7307L59.1776 16.4369C55.3729 9.50443 49.1183 4.23751 41.6351 1.6646L41.6009 1.65323ZM21.8836 22.2495L39.707 1.08069L39.5286 1.03519C36.8912 0.342621 34.1751 -0.00532162 31.4481 6.15154e-05C27.0325 0.0413784 22.6731 0.994378 18.6438 2.79921C14.6145 4.60404 11.0023 7.2217 8.03402 10.4878L7.97329 10.5561L21.8836 22.2495Z" fill="black"/>
</svg>
