<svg width="61" height="53" viewBox="0 0 61 53" fill="none" xmlns="http://www.w3.org/2000/svg">
<path d="M55.375 23.8738C54.9437 23.9025 54.5413 24.0463 54.2538 24.3625L51.3788 27.2375L57.2725 32.9875L60.1475 30.1125C60.78 29.5088 60.78 28.5025 60.1475 27.8987L56.5825 24.3625C56.2952 24.0645 55.9037 23.8893 55.49 23.8738M49.74 28.905L32.375 46.3275V52.25H38.2975L55.72 34.7988M52.5 0.5H6.5C4.97501 0.5 3.51247 1.1058 2.43414 2.18414C1.3558 3.26247 0.75 4.72501 0.75 6.25V40.75C0.75 42.275 1.3558 43.7375 2.43414 44.8159C3.51247 45.8942 4.97501 46.5 6.5 46.5H26.625V43.9413L50.315 20.3088C51.6662 18.9 53.535 18.1238 55.49 18.1238C56.4675 18.1238 57.445 18.2962 58.365 18.67V6.25C58.365 3.03 55.72 0.5 52.5 0.5ZM52.5 12L29.5 26.375L6.5 12V6.25L29.5 20.625L52.5 6.25" fill="white"/>
</svg>
